<svg width="29" height="15" viewBox="0 0 29 15" fill="none" xmlns="http://www.w3.org/2000/svg">
<path d="M26.6398 8.68663C27.3378 5.40302 28.6102 3.61444 28.6102 3.61444C27.5113 3.38087 24.8093 6.16945 23.9559 7.0867L21.265 6.51473C21.4946 6.11875 21.8057 5.77049 22.1803 5.5022C22.2538 5.44952 22.3306 5.39926 22.4085 5.35274L21.7205 4.19957C21.6104 4.26532 21.5018 4.33634 21.3982 4.41063C20.7505 4.8745 20.2369 5.50664 19.9049 6.22557L17.6222 5.74035C17.9544 5.02039 18.4686 4.3874 19.1168 3.9231C19.2205 3.84883 19.3291 3.7778 19.4394 3.71196L18.7518 2.55858C18.6092 2.64366 18.4688 2.73551 18.3348 2.83154C17.415 3.49032 16.7038 4.41136 16.284 5.45584L13.9996 4.97028C14.4203 3.92262 15.1333 2.99873 16.0558 2.33801C16.1896 2.24205 16.3302 2.14998 16.4737 2.06435L15.7858 0.91118C15.6099 1.01609 15.4374 1.12906 15.2735 1.2466C14.0801 2.10131 13.1709 3.31481 12.6693 4.68751L10.5667 4.24059C10.8554 2.88236 11.1245 1.6164 11.3344 0.628624C4.1105 -0.906873 0.506473 3.13182 0.506473 3.13182C0.506473 3.13182 2.15623 8.28723 9.38018 9.82273C9.61871 8.70052 9.88372 7.45374 10.1479 6.21076L12.2483 6.6572C12.133 8.3189 12.5968 10.0061 13.5617 11.3751L14.6593 10.6016C13.9082 9.53589 13.5307 8.23422 13.579 6.94005L15.8636 7.42566C15.816 8.71654 16.1927 10.0142 16.9413 11.0765L18.0388 10.3028C17.5043 9.54441 17.215 8.6311 17.202 7.71016L19.4851 8.19543C19.4982 9.11544 19.7871 10.0276 20.3208 10.785L21.4184 10.0115C21.0999 9.55955 20.9049 9.02973 20.8457 8.48465L23.5372 9.05675C23.9437 10.2418 25.2779 13.8883 26.3768 14.1219C26.3768 14.1219 25.9419 11.9702 26.6398 8.68663ZM5.1035 4.10908C4.74079 4.03199 4.50927 3.67548 4.58637 3.31277C4.66347 2.95006 5.01998 2.71854 5.38268 2.79564C5.74533 2.87272 5.97691 3.22924 5.89982 3.59195C5.82272 3.95466 5.46614 4.18616 5.1035 4.10908Z" fill="#262626"/>
</svg>
