<svg width="26" height="20" viewBox="0 0 26 20" fill="none" xmlns="http://www.w3.org/2000/svg">
<path d="M9.19125 13.768C9.16529 13.9016 9.18361 14.0372 9.23934 14.156C9.67325 15.5863 8.87227 17.1177 7.4305 17.5862C5.97239 18.06 4.40095 17.26 3.92769 15.8034C3.65686 14.9699 3.79717 14.0733 4.31573 13.3417L4.31573 13.3417C4.43093 13.1791 4.46251 12.9717 4.40094 12.7822C4.33939 12.5928 4.19192 12.4435 4.00318 12.3798L4.00317 12.3797C3.1535 12.0927 2.51347 11.4509 2.2434 10.6197C1.77173 9.16806 2.5735 7.60061 4.03201 7.12671C4.83593 6.86551 5.57338 6.91448 6.17389 7.21885C6.77453 7.52329 7.25443 8.0915 7.52736 8.89923L7.52737 8.89925C7.63797 9.2264 7.99114 9.40376 8.31958 9.29704L16.3734 6.68018C16.7019 6.57346 16.8834 6.22239 16.7805 5.89271C16.5267 5.07926 16.5811 4.33784 16.8881 3.73873C17.1951 3.13974 17.763 2.66676 18.5669 2.40555C20.0259 1.93153 21.5939 2.72413 22.0635 4.16921C22.3352 5.00547 22.1952 5.90354 21.6768 6.63508C21.5616 6.79762 21.53 7.00505 21.5916 7.19449C21.6531 7.38399 21.8006 7.53317 21.9893 7.597L21.9893 7.59701C22.8387 7.88401 23.4798 8.52833 23.7515 9.36456C24.2263 10.8256 23.4258 12.3997 21.9681 12.8733C20.5272 13.3415 18.9775 12.5697 18.4853 11.1516C18.4614 11.0271 18.3999 10.9101 18.3054 10.8184C18.1377 10.6556 17.8936 10.5989 17.6713 10.6711L9.61537 13.2886C9.39735 13.3595 9.23496 13.543 9.19125 13.768ZM9.19125 13.768L9.33849 13.7967M9.19125 13.768C9.19125 13.7681 9.19125 13.7681 9.19124 13.7681L9.33849 13.7967M9.33849 13.7967C9.31806 13.9017 9.33362 14.0086 9.37946 14.1013L9.33849 13.7967ZM6.59285 6.1754L6.65195 6.04889C7.45001 6.42172 8.07518 7.06402 8.48668 7.91684L15.427 5.66181C15.2586 4.73004 15.387 3.84313 15.8136 3.0727C16.2941 2.20503 17.1361 1.54454 18.1772 1.20629C19.2035 0.872819 20.2969 0.954388 21.2545 1.43665C22.2159 1.92078 22.9294 2.75328 23.2628 3.77952C23.5804 4.75711 23.5126 5.79153 23.0865 6.70874C23.9704 7.20031 24.6333 7.99733 24.9509 8.97491C25.6404 11.0971 24.4775 13.3839 22.3578 14.0727C20.4353 14.6973 18.3785 13.8022 17.4999 12.0529L10.567 14.3055C10.7078 15.1515 10.574 16.0157 10.1747 16.7904C10.1747 16.7904 10.1747 16.7904 10.1747 16.7904L10.0413 16.7216C9.56831 17.6392 8.76302 18.3216 7.77387 18.643C5.73313 19.306 3.53369 18.1863 2.87103 16.1468C2.55114 15.1623 2.6387 14.1175 3.10396 13.2038L6.59285 6.1754ZM6.59285 6.1754L6.65195 6.04888C5.75291 5.6289 4.68338 5.58916 3.64234 5.92742C1.52318 6.61592 0.357161 8.89533 1.04406 11.0094C1.36046 11.9831 2.02244 12.7775 2.90579 13.2682L6.59285 6.1754Z" fill="#262626" stroke="#262626" stroke-width="0.3"/>
</svg>
