<svg width="19" height="18" viewBox="0 0 19 18" fill="none" xmlns="http://www.w3.org/2000/svg">
<path d="M14.5544 5.18124L16.3585 3.37717L16.412 4.69109C16.4203 4.91351 16.6056 5.08238 16.828 5.07415L17.9648 5.02472C18.1873 5.01648 18.3561 4.83113 18.3479 4.60871L18.179 0.535132C18.1708 0.312712 17.9854 0.143837 17.763 0.152075L13.6894 0.32095C13.467 0.329187 13.2981 0.514537 13.3064 0.736957L13.3558 1.87377C13.364 2.09619 13.5494 2.26506 13.7718 2.25683L15.061 2.20328L13.3187 3.94557C10.2337 1.47012 5.71526 1.66371 2.85263 4.52633C-0.220057 7.59902 -0.220059 12.5746 2.85263 15.6473C5.92532 18.72 10.9051 18.7159 13.9736 15.6473C16.8363 12.7847 17.0298 8.26629 14.5544 5.18124ZM4.50019 13.9998C2.34189 11.8415 2.34189 8.33219 4.50019 6.17389C6.65849 4.01559 10.1678 4.01559 12.3261 6.17389C14.4844 8.33219 14.4844 11.8415 12.3261 13.9998C10.1678 16.1581 6.65849 16.1581 4.50019 13.9998Z" fill="#70D4F4"/>
</svg>
