<svg width="48" height="48" viewBox="0 0 48 48" fill="none" xmlns="http://www.w3.org/2000/svg">
<path d="M24 5.5C20.7366 5.5 17.5465 6.46771 14.8331 8.28075C12.1197 10.0938 10.0048 12.6707 8.75599 15.6857C7.50715 18.7007 7.18039 22.0183 7.81705 25.219C8.45371 28.4197 10.0252 31.3597 12.3327 33.6673C14.6403 35.9748 17.5803 37.5463 20.781 38.183C23.9817 38.8196 27.2993 38.4929 30.3143 37.244C33.3293 35.9952 35.9062 33.8803 37.7192 31.1669C39.5323 28.4535 40.5 25.2634 40.5 22C40.5 19.8332 40.0732 17.6876 39.244 15.6857C38.4148 13.6838 37.1994 11.8649 35.6673 10.3327C34.1351 8.80057 32.3162 7.58519 30.3143 6.75599C28.3124 5.92679 26.1668 5.5 24 5.5ZM24 30.25C23.6737 30.25 23.3547 30.1532 23.0833 29.9719C22.812 29.7906 22.6005 29.5329 22.4756 29.2314C22.3507 28.9299 22.318 28.5982 22.3817 28.2781C22.4454 27.958 22.6025 27.664 22.8333 27.4333C23.064 27.2025 23.358 27.0454 23.6781 26.9817C23.9982 26.918 24.3299 26.9507 24.6314 27.0756C24.9329 27.2005 25.1906 27.412 25.3719 27.6833C25.5532 27.9546 25.65 28.2737 25.65 28.6C25.65 29.0376 25.4762 29.4573 25.1667 29.7667C24.8573 30.0762 24.4376 30.25 24 30.25ZM25.65 23.65C25.65 24.0876 25.4762 24.5073 25.1667 24.8167C24.8573 25.1262 24.4376 25.3 24 25.3C23.5624 25.3 23.1427 25.1262 22.8333 24.8167C22.5238 24.5073 22.35 24.0876 22.35 23.65V15.4C22.35 14.9624 22.5238 14.5427 22.8333 14.2333C23.1427 13.9238 23.5624 13.75 24 13.75C24.4376 13.75 24.8573 13.9238 25.1667 14.2333C25.4762 14.5427 25.65 14.9624 25.65 15.4V23.65Z" fill="white"/>
</svg>
