<svg width="24" height="24" viewBox="0 0 24 24" fill="none" xmlns="http://www.w3.org/2000/svg">
<path d="M13.152 2.61174C11.7729 2.61174 10.4157 2.89632 9.15698 3.42169V2.03164C9.15698 0.926169 8.01867 0.236617 7.11021 0.783881L4.1331 2.58985L1.15598 4.39582C0.214689 4.96497 0.214689 6.32219 1.15598 6.89134L4.1331 8.69731L7.11021 10.5033C8.01867 11.0615 9.15698 10.361 9.15698 9.25552V7.06647C9.25548 7.04458 9.35399 7.00079 9.44155 6.94607C10.558 6.26746 11.8386 5.90627 13.152 5.90627C17.0704 5.90627 20.2664 9.10229 20.2664 13.0207C20.2664 16.9391 17.0704 20.1351 13.152 20.1351C11.0396 20.1351 9.04752 19.2048 7.69031 17.5849C7.11021 16.8844 6.07041 16.7968 5.38086 17.3769C4.68036 17.957 4.5928 18.9968 5.1729 19.6864C7.15399 22.0505 10.0654 23.4078 13.152 23.4078C18.8873 23.4078 23.55 18.7451 23.55 13.0097C23.55 7.28537 18.8873 2.61174 13.152 2.61174Z" fill="#262626"/>
</svg>
