<svg width="24" height="24" viewBox="0 0 24 24" fill="none" xmlns="http://www.w3.org/2000/svg">
<path fill-rule="evenodd" clip-rule="evenodd" d="M11.2795 9.06812H2.91066C2.27884 9.06812 1.78003 8.55823 1.78003 7.9375C1.78003 7.31676 2.27884 6.80687 2.91066 6.81795H11.2684V5.74275C11.2684 5.11093 11.7783 4.61212 12.3991 4.61212C13.0198 4.61212 13.5297 5.11093 13.5297 5.74275V10.1322C13.5297 10.7641 13.0198 11.2629 12.3991 11.2629C11.7783 11.2629 11.2684 10.7641 11.2795 10.1433V9.06812ZM15.9683 6.80687H21.0894C21.7101 6.80687 22.22 7.31676 22.22 7.9375C22.22 8.56932 21.7101 9.06812 21.0894 9.06812H15.9683C15.3365 9.06812 14.8377 8.55823 14.8377 7.9375C14.8377 7.30567 15.3476 6.80687 15.9683 6.80687ZM21.0894 14.9319H17.0657V13.8567C17.0657 13.2359 16.5669 12.726 15.9351 12.726C15.3143 12.726 14.8044 13.2248 14.8044 13.8567V18.2572C14.8044 18.878 15.3032 19.3879 15.9351 19.3879C16.5558 19.3879 17.0657 18.8891 17.0657 18.2572V17.182H21.0894C21.7101 17.182 22.22 16.6832 22.22 16.0514C22.22 15.4307 21.7101 14.9319 21.0894 14.9319ZM2.91066 14.9319H12.4212C13.053 14.9319 13.5519 15.4307 13.5519 16.0514C13.5519 16.6832 13.042 17.182 12.4212 17.182H2.91066C2.27884 17.182 1.78003 16.6721 1.78003 16.0514C1.78003 15.4307 2.27884 14.9319 2.91066 14.9319Z" fill="#262626"/>
</svg>
