<svg width="17" height="22" viewBox="0 0 17 22" fill="none" xmlns="http://www.w3.org/2000/svg">
<path d="M16.3504 8.09536C16.3504 3.75731 12.8381 0.244995 8.5 0.244995C4.16195 0.244995 0.649635 3.75731 0.649635 8.09536C0.649635 12.1601 3.74326 15.5038 7.70333 15.905V17.8705H6.05185C5.77854 17.8705 5.55757 18.0915 5.55757 18.3648V19.1208C5.55757 19.3941 5.77854 19.615 6.05185 19.615H7.70333V21.2142C7.70333 21.5166 7.92431 21.755 8.19761 21.755H8.95358C9.22688 21.755 9.44786 21.5108 9.44786 21.2142V19.615H11.0993C11.3727 19.615 11.5936 19.3941 11.5936 19.1208V18.3648C11.5936 18.0915 11.3727 17.8705 11.0993 17.8705H9.44786L9.44786 15.8818C13.3323 15.4166 16.3504 12.1078 16.3504 8.09536ZM2.97567 8.09536C2.97567 5.04826 5.4529 2.57103 8.5 2.57103C11.5471 2.57103 14.0243 5.04826 14.0243 8.09536C14.0243 11.1425 11.5471 13.6197 8.5 13.6197C5.4529 13.6197 2.97567 11.1425 2.97567 8.09536Z" fill="#FDAAA2"/>
</svg>
